<svg xmlns="http://www.w3.org/2000/svg" viewBox="0 0 512 512" width="512" height="512">
  <defs>
    <linearGradient id="bg" x1="0" y1="0" x2="1" y2="1">
      <stop offset="0" stop-color="#0c3326"/>
      <stop offset="0.55" stop-color="#06140f"/>
      <stop offset="1" stop-color="#02080c"/>
    </linearGradient>
    <radialGradient id="glow" cx="0.5" cy="0.42" r="0.55">
      <stop offset="0" stop-color="#1ad97a" stop-opacity="0.45"/>
      <stop offset="1" stop-color="#1ad97a" stop-opacity="0"/>
    </radialGradient>
    <radialGradient id="ball" cx="0.4" cy="0.34" r="0.75">
      <stop offset="0" stop-color="#ffffff"/>
      <stop offset="0.7" stop-color="#eef3f1"/>
      <stop offset="1" stop-color="#c4d0cb"/>
    </radialGradient>
    <clipPath id="ballClip"><circle cx="256" cy="232" r="140"/></clipPath>
  </defs>

  <rect width="512" height="512" fill="url(#bg)"/>
  <rect width="512" height="512" fill="url(#glow)"/>
  <rect x="14" y="14" width="484" height="484" rx="96" ry="96"
        fill="none" stroke="#f5c84a" stroke-opacity="0.22" stroke-width="3"/>

  <circle cx="256" cy="232" r="140" fill="url(#ball)" stroke="#0b1f17" stroke-width="5"/>
  <g clip-path="url(#ballClip)">
    <polygon points="279.5,49.6 294.0,94.4 256.0,122.0 218.0,94.4 232.5,49.6" fill="#0b1f17"/><polygon points="436.7,198.0 398.7,225.6 360.6,198.0 375.1,153.3 422.2,153.3" fill="#0b1f17"/><polygon points="344.2,393.4 306.1,365.7 320.7,321.0 367.7,321.0 382.2,365.7" fill="#0b1f17"/><polygon points="129.8,365.7 144.3,321.0 191.3,321.0 205.9,365.7 167.8,393.4" fill="#0b1f17"/><polygon points="89.8,153.3 136.9,153.3 151.4,198.0 113.3,225.6 75.3,198.0" fill="#0b1f17"/>
    <line x1="256.0" y1="185.0" x2="256.0" y2="104.0" stroke="#0b1f17" stroke-width="6" stroke-linecap="round"/><line x1="300.7" y1="217.5" x2="377.7" y2="192.4" stroke="#0b1f17" stroke-width="6" stroke-linecap="round"/><line x1="283.6" y1="270.0" x2="331.2" y2="335.6" stroke="#0b1f17" stroke-width="6" stroke-linecap="round"/><line x1="228.4" y1="270.0" x2="180.8" y2="335.6" stroke="#0b1f17" stroke-width="6" stroke-linecap="round"/><line x1="211.3" y1="217.5" x2="134.3" y2="192.4" stroke="#0b1f17" stroke-width="6" stroke-linecap="round"/>
    <polygon points="256.0,185.0 300.7,217.5 283.6,270.0 228.4,270.0 211.3,217.5" fill="#0b1f17"/>
  </g>
  <circle cx="256" cy="232" r="140" fill="none" stroke="#ffffff" stroke-opacity="0.15" stroke-width="2"/>

  <text x="256" y="466" text-anchor="middle"
        font-family="'Arial Black','Segoe UI',sans-serif" font-weight="900"
        font-size="92" letter-spacing="2"
        fill="#f5c84a" stroke="#7a5a10" stroke-width="1.5">2026</text>
</svg>